<?xml version="1.0" standalone="no"?>
<!DOCTYPE svg PUBLIC "-//W3C//DTD SVG 20010904//EN"
 "http://www.w3.org/TR/2001/REC-SVG-20010904/DTD/svg10.dtd">
<svg version="1.0" xmlns="http://www.w3.org/2000/svg"
 width="980.000000pt" height="1280.000000pt" viewBox="0 0 980.000000 1280.000000"
 preserveAspectRatio="xMidYMid meet">
<metadata>
Created by potrace 1.15, written by Peter Selinger 2001-2017
</metadata>
<g transform="translate(0.000000,1280.000000) scale(0.100000,-0.100000)"
fill="#2196f3" stroke="none">
<path d="M7299 12122 c-706 -698 -1360 -1341 -2074 -2037 -225 -220 -708 -692
-1072 -1048 l-663 -648 -62 -9 c-153 -22 -252 -77 -333 -184 l-49 -66 -78 0
-77 0 -6 -57 c-11 -94 -43 -219 -70 -272 -20 -41 -41 -61 -115 -111 -49 -34
-90 -64 -90 -66 0 -2 8 -19 17 -39 15 -32 20 -35 49 -29 l33 6 -12 -32 c-7
-18 -21 -36 -32 -41 -24 -10 -281 -34 -585 -54 -752 -51 -1032 -91 -1315 -188
-79 -27 -76 -19 -52 -137 9 -41 19 -122 23 -180 6 -95 10 -108 34 -137 49 -55
55 -91 55 -303 0 -195 0 -195 -29 -254 -33 -68 -115 -153 -201 -211 -33 -22
-165 -94 -294 -160 l-234 -120 2 -111 c2 -105 1 -112 -18 -117 -17 -4 -21 -13
-21 -51 0 -34 -4 -46 -15 -46 -13 0 -15 -24 -15 -154 l0 -154 128 -52 c70 -28
318 -129 551 -223 l424 -172 2 -55 c2 -36 13 -80 34 -127 19 -45 31 -89 31
-117 0 -57 12 -88 55 -140 19 -24 35 -51 35 -61 0 -71 53 -148 133 -194 28
-17 63 -46 76 -66 14 -20 92 -100 174 -178 170 -161 229 -240 270 -365 29 -86
57 -240 57 -310 0 -50 -54 -165 -106 -226 -30 -35 -34 -46 -34 -98 0 -62 18
-111 45 -122 9 -3 31 -6 48 -6 18 0 54 -11 80 -24 75 -39 148 -52 199 -37 56
17 164 94 183 131 24 47 18 69 -33 121 l-48 48 3 308 4 308 -44 225 c-24 124
-43 227 -41 229 2 2 12 -3 22 -12 22 -20 65 -22 81 -3 6 7 23 51 39 97 21 66
27 102 26 166 l-1 81 26 -10 c14 -5 346 -126 736 -268 391 -142 718 -262 728
-265 17 -7 17 -22 12 -214 -3 -113 -8 -257 -11 -318 -5 -103 -8 -113 -25 -113
-27 0 -69 -44 -69 -72 0 -13 -7 -32 -15 -42 -39 -52 -6 -132 82 -195 l63 -46
0 -86 c0 -47 3 -113 6 -145 l6 -59 -43 -24 c-134 -73 -169 -110 -169 -179 0
-52 -86 -107 -186 -118 -47 -6 -57 -11 -65 -31 -15 -40 -11 -50 27 -57 l35 -7
-7 -127 c-3 -70 -8 -130 -10 -133 -2 -3 -28 -11 -59 -18 l-55 -12 0 -44 c0
-41 2 -44 38 -56 57 -18 57 -19 3 -50 -28 -16 -55 -38 -61 -50 -19 -34 5 -75
59 -101 58 -29 169 -30 288 -4 89 20 79 22 205 -32 l46 -21 -49 -49 c-50 -50
-63 -88 -36 -110 6 -6 42 -22 78 -35 82 -31 102 -24 142 50 l27 51 301 -140
c166 -77 309 -138 319 -135 13 3 632 369 649 383 2 2 -22 15 -53 31 l-56 27 0
116 c0 116 0 116 30 145 16 15 27 31 25 36 -3 4 -64 40 -135 80 -110 61 -130
76 -130 96 0 14 -5 34 -11 46 -18 34 -112 127 -129 127 -24 0 -60 29 -70 56
-14 36 15 295 33 306 8 4 29 31 47 60 18 29 42 66 52 81 20 30 20 42 0 135 -7
30 -23 57 -52 87 l-42 43 77 231 c42 127 80 231 84 231 7 0 79 -25 706 -242
143 -49 317 -109 386 -133 l127 -43 48 28 c64 36 222 96 419 161 88 28 165 54
171 56 12 5 22 -14 34 -64 9 -36 0 -87 -25 -148 -21 -49 -27 -40 -51 80 l-18
90 -14 -75 c-8 -47 -11 -111 -8 -173 5 -93 3 -105 -35 -230 -47 -157 -56 -217
-48 -317 11 -131 85 -298 202 -462 30 -41 57 -80 61 -87 5 -7 -8 -29 -32 -55
-58 -63 -75 -143 -52 -241 16 -64 49 -284 65 -427 27 -240 15 -461 -30 -588
-9 -25 -19 -76 -22 -115 -7 -88 13 -120 81 -130 41 -7 44 -9 50 -45 4 -28 17
-48 46 -73 40 -34 45 -35 170 -47 71 -7 146 -9 167 -6 62 11 136 52 158 88 11
18 32 53 47 78 48 78 31 145 -57 230 -44 43 -46 47 -40 88 8 55 -9 105 -46
137 l-31 25 -1 158 c-2 127 1 167 16 208 18 52 61 101 109 126 36 18 208 224
259 309 50 84 93 203 119 329 11 55 30 119 42 142 17 31 22 59 22 122 1 80 1
81 28 86 57 10 68 31 68 127 0 84 1 89 40 153 22 37 44 87 49 111 6 30 10 -48
11 -241 2 -157 5 -354 9 -439 l6 -155 50 -13 50 -12 62 62 62 62 6 150 7 150
-42 20 c-23 10 -57 37 -76 59 -29 33 -34 47 -34 88 0 63 28 117 78 152 l40 27
7 177 c22 528 23 492 -2 499 -19 4 -23 12 -23 45 0 22 -5 48 -10 59 -9 15 -5
26 19 57 31 38 53 110 50 165 -1 18 6 49 15 69 15 35 15 38 -2 47 -11 6 -33 6
-56 1 l-38 -8 5 37 c2 21 13 50 22 65 25 37 139 110 214 135 133 45 153 68
161 175 l5 71 123 64 c174 90 254 174 381 398 37 65 60 94 80 103 26 10 30 19
44 93 26 134 30 174 22 242 -6 64 -7 64 -41 71 l-35 6 5 77 c3 42 8 153 11
246 12 374 35 793 56 1005 19 201 40 365 50 392 14 35 4 63 -41 112 l-38 41
-6 320 -7 320 32 20 c66 41 64 68 -7 117 -103 73 -349 127 -669 148 -88 6
-184 14 -213 18 l-53 7 -260 514 c-143 283 -256 517 -252 521 4 4 42 31 83 60
344 245 663 575 889 919 80 122 81 158 5 235 -78 78 -175 132 -552 307 -129
60 -270 130 -314 156 -131 78 -186 155 -145 205 6 8 140 118 297 243 643 515
969 797 1318 1139 l183 180 -78 23 c-417 126 -1057 302 -1483 408 -124 31
-232 58 -240 60 -10 3 -253 -230 -701 -673z m784 -3801 c125 -246 227 -450
227 -452 0 -3 -35 -2 -77 3 -292 28 -597 41 -1155 47 l-606 6 296 164 c524
290 813 469 1002 620 41 32 77 60 80 60 3 1 107 -201 233 -448z m-6433 -3895
c0 -29 -3 -56 -7 -60 -6 -6 -72 144 -73 167 0 5 18 -6 40 -23 38 -30 40 -35
40 -84z m2673 -872 c16 -5 17 -26 17 -248 0 -311 -13 -1098 -18 -1068 -2 14
-22 36 -49 55 -24 18 -65 60 -89 94 -42 59 -44 65 -44 131 0 38 3 96 6 128 6
52 10 62 37 79 54 35 84 113 89 231 2 57 -29 94 -78 94 -40 0 -41 2 -49 210
-3 80 -8 189 -12 242 l-6 96 89 -19 c49 -11 97 -22 107 -25z m3892 -211 c-57
-57 -127 -162 -174 -261 -19 -40 -38 -72 -41 -72 -4 0 -13 11 -20 25 -13 24
-11 28 28 68 23 24 42 49 42 58 0 8 -11 31 -25 51 l-24 36 122 70 c67 39 126
71 130 71 5 1 -12 -20 -38 -46z m158 -204 c45 -11 85 -24 89 -28 4 -3 -5 -34
-21 -66 -15 -33 -26 -66 -23 -73 10 -31 -11 -86 -51 -129 -35 -38 -39 -47 -29
-64 23 -36 14 -91 -24 -152 -19 -31 -37 -57 -40 -57 -2 0 -4 133 -4 295 0 205
3 295 11 295 6 0 47 -9 92 -21z"/>
<path d="M8746 2938 c-9 -79 -12 -248 -5 -240 8 9 99 249 99 260 0 7 -64 32
-83 32 -3 0 -8 -24 -11 -52z"/>
</g>
</svg>
