<?xml version="1.0" standalone="no"?>
<!DOCTYPE svg PUBLIC "-//W3C//DTD SVG 20010904//EN"
 "http://www.w3.org/TR/2001/REC-SVG-20010904/DTD/svg10.dtd">
<svg version="1.0" xmlns="http://www.w3.org/2000/svg"
 width="1280.000000pt" height="710.000000pt" viewBox="0 0 1280.000000 710.000000"
 preserveAspectRatio="xMidYMid meet">
<metadata>
Created by potrace 1.15, written by Peter Selinger 2001-2017
</metadata>
<g transform="translate(0.000000,710.000000) scale(0.100000,-0.100000)"
fill="#4caf50" stroke="none">
<path d="M9093 6610 c-18 -11 -33 -24 -33 -29 0 -19 39 -97 59 -118 40 -42 30
-50 -92 -63 -63 -7 -122 -10 -132 -9 -25 5 -33 25 -40 101 -8 86 -30 117 -71
102 -27 -9 -29 -14 -27 -57 1 -26 11 -66 22 -90 22 -46 26 -63 13 -71 -4 -2
-63 -10 -131 -16 -142 -14 -151 -11 -133 47 6 21 14 59 17 84 l6 46 -42 6
c-47 6 -139 -17 -139 -36 0 -23 49 -117 64 -123 20 -8 27 -42 9 -48 -31 -12
-152 -6 -188 10 -37 15 -39 15 -60 -8 -13 -13 -37 -60 -55 -106 -55 -140 -92
-164 -320 -211 -153 -32 -259 -55 -700 -151 -240 -52 -578 -124 -1040 -220
-451 -94 -1010 -213 -1330 -283 -403 -88 -641 -137 -666 -137 -26 0 -147 41
-200 68 -63 32 -140 107 -168 164 -20 40 -26 67 -26 117 0 151 98 251 296 301
41 11 79 22 84 25 29 18 -5 50 -85 81 -78 30 -285 27 -380 -4 -111 -37 -199
-89 -360 -210 -167 -125 -298 -196 -440 -239 -77 -23 -109 -27 -225 -27 -215
-1 -313 28 -691 207 -374 178 -745 270 -1017 252 -224 -14 -343 -42 -465 -110
-94 -53 -227 -191 -227 -236 0 -30 19 -32 139 -9 158 31 276 12 469 -72 340
-148 584 -534 631 -994 6 -57 5 -95 -2 -114 -8 -21 -7 -39 3 -69 10 -33 11
-68 1 -193 -7 -84 -14 -162 -17 -174 -4 -15 -21 -25 -62 -38 -123 -37 -203
-73 -545 -241 -118 -57 -220 -111 -226 -119 -14 -16 -7 -36 12 -36 7 0 144 65
305 145 261 129 443 205 489 205 11 0 14 -7 10 -22 -3 -13 -8 -41 -12 -63 -13
-85 -77 -319 -130 -475 -51 -151 -132 -329 -211 -466 -10 -17 -15 -38 -11 -48
4 -10 49 -37 101 -61 52 -25 97 -49 100 -54 16 -25 212 -42 311 -27 28 4 81
11 119 17 91 13 167 39 312 109 255 121 437 272 649 539 139 175 280 313 358
350 107 51 209 74 324 73 143 -2 220 -20 538 -127 381 -128 521 -165 619 -165
71 0 178 28 255 66 81 40 190 140 226 207 25 47 14 57 -61 57 -65 0 -200 25
-284 52 -165 53 -335 162 -481 307 -88 86 -114 120 -143 180 -45 94 -53 144
-32 213 31 105 10 96 471 207 226 54 527 126 670 160 433 102 886 209 1150
272 299 72 498 118 700 164 165 37 677 160 835 200 255 65 395 80 465 51 19
-8 66 -44 104 -80 39 -36 77 -66 86 -66 9 0 28 13 43 29 28 31 149 94 163 85
5 -2 4 -16 -1 -30 -13 -34 -13 -120 1 -146 9 -17 17 -19 47 -13 47 9 92 32 92
48 0 18 -46 114 -59 121 -6 4 -11 17 -11 30 0 22 37 39 247 114 10 3 11 -18 6
-92 -7 -104 -8 -102 52 -97 32 3 114 32 121 42 5 9 -68 126 -87 139 -12 9 -4
44 12 48 8 2 60 22 117 44 82 32 106 37 117 28 13 -10 13 -16 0 -41 -8 -15
-15 -53 -15 -84 l0 -55 38 0 c49 0 107 17 122 35 10 13 7 26 -22 73 -19 31
-40 70 -46 85 -11 25 -10 28 11 36 12 5 85 32 162 61 233 88 261 105 230 146
-8 11 -15 39 -15 62 0 28 -7 53 -19 68 -14 18 -18 34 -14 62 3 25 -1 50 -12
71 -9 18 -15 42 -15 54 1 12 2 27 1 34 -3 28 -84 26 -381 -7 -96 -11 -102 -6
-95 74 3 33 2 75 -3 91 -7 25 -14 30 -43 33 -21 1 -47 -5 -66 -18z"/>
<path d="M10780 3554 c-13 -34 -13 -34 12 -61 18 -19 20 -28 12 -51 -11 -31
-22 -32 -104 -10 -87 24 -102 14 -140 -89 -35 -97 -79 -169 -143 -231 -48 -47
-104 -66 -327 -111 -58 -12 -181 -37 -275 -55 -93 -19 -318 -64 -500 -100
-341 -68 -498 -100 -915 -186 -135 -28 -265 -55 -290 -59 -25 -5 -236 -47
-470 -94 l-425 -86 -145 4 c-171 5 -189 8 -247 41 -49 27 -53 27 -463 84 -157
22 -355 51 -440 64 -259 41 -1367 198 -1630 232 -19 2 -152 20 -295 39 -729
96 -774 101 -860 86 -38 -7 -75 -17 -82 -23 -27 -22 -37 -14 227 -181 132 -83
187 -122 353 -251 190 -148 452 -386 498 -452 16 -23 38 -46 49 -49 29 -9 303
-316 361 -405 55 -83 83 -161 93 -261 l7 -67 -108 -45 c-59 -25 -153 -62 -208
-82 -112 -42 -140 -56 -310 -163 -151 -96 -185 -121 -185 -138 0 -30 18 -21
200 96 155 100 191 120 298 159 42 16 126 50 186 75 60 25 111 46 114 46 10 0
-7 -231 -18 -245 -6 -8 -13 -73 -15 -160 -5 -143 -10 -199 -39 -430 -7 -60
-12 -113 -9 -117 11 -19 56 -4 133 43 46 28 304 197 574 376 270 180 664 441
876 581 212 139 396 262 410 271 14 10 107 72 206 139 121 81 196 138 223 171
46 55 21 47 476 150 22 5 69 16 105 25 52 12 620 142 930 212 36 8 83 19 105
24 22 5 159 37 305 69 327 74 308 70 580 131 319 72 350 79 395 90 22 5 112
25 200 45 88 20 233 54 322 76 289 69 411 84 708 84 373 0 615 -24 912 -91 83
-19 158 -31 167 -28 21 8 30 46 22 87 -9 43 -121 247 -152 274 -13 12 -42 27
-64 33 -50 14 -51 34 -3 57 40 19 60 62 43 93 -10 19 -60 40 -95 40 -45 0 -70
-63 -45 -111 6 -11 7 -26 3 -33 -13 -22 -163 28 -163 54 0 10 8 25 18 32 43
30 56 100 23 118 -31 16 -66 12 -86 -10 -14 -16 -16 -29 -11 -70 9 -64 -2 -69
-92 -43 -59 17 -67 22 -67 43 0 19 9 29 38 43 30 14 37 22 37 46 0 50 -42 76
-111 69 -26 -2 -37 -10 -47 -31 -13 -26 -12 -31 7 -51 22 -24 28 -61 11 -71
-12 -7 -150 34 -150 45 0 4 9 27 19 51 11 24 22 60 26 80 6 32 4 37 -16 42
-13 3 -29 1 -35 -4 -13 -11 -31 -57 -37 -94 -6 -40 -27 -66 -45 -56 -9 4 -41
14 -70 21 -28 6 -54 16 -57 20 -11 18 13 54 46 69 26 12 35 23 37 47 3 25 -2
33 -30 48 -21 11 -49 16 -78 14 -40 -3 -45 -6 -54 -36 -7 -25 -5 -36 8 -50 16
-19 22 -57 9 -65 -11 -6 -156 37 -154 46 0 4 1 18 1 33 0 19 8 28 34 39 33 14
46 31 46 61 0 23 -61 54 -108 54 -36 0 -44 -4 -52 -26z"/>
</g>
</svg>
