<?xml version="1.0" standalone="no"?>
<!DOCTYPE svg PUBLIC "-//W3C//DTD SVG 20010904//EN"
 "http://www.w3.org/TR/2001/REC-SVG-20010904/DTD/svg10.dtd">
<svg version="1.0" xmlns="http://www.w3.org/2000/svg"
 width="1280.000000pt" height="973.000000pt" viewBox="0 0 1280.000000 973.000000"
 preserveAspectRatio="xMidYMid meet">
<metadata>
Created by potrace 1.15, written by Peter Selinger 2001-2017
</metadata>
<g transform="translate(0.000000,973.000000) scale(0.100000,-0.100000)"
fill="#673ab7" stroke="none">
<path d="M3935 9719 c-332 -28 -556 -98 -652 -201 -53 -58 -67 -102 -61 -197
4 -63 11 -88 39 -141 111 -211 451 -413 951 -565 76 -23 140 -44 143 -47 3 -3
-136 -87 -308 -187 -278 -160 -319 -181 -358 -181 l-45 0 -27 -102 c-15 -57
-27 -106 -27 -110 0 -5 11 -8 25 -8 23 0 25 -3 25 -47 l0 -48 -511 -302 -511
-303 -77 0 -76 0 -150 -104 c-149 -102 -150 -103 -153 -144 -4 -53 23 -106 83
-161 94 -87 171 -94 247 -23 l27 25 47 -51 c93 -104 318 -228 669 -368 94 -37
172 -69 173 -70 2 -1 -2 -28 -9 -58 l-12 -56 -96 -30 c-795 -245 -848 -260
-902 -260 l-57 0 -35 -82 c-55 -134 -55 -128 -8 -128 l41 0 0 -43 0 -43 -725
-348 -725 -349 -80 7 -80 7 -147 -77 c-82 -42 -156 -84 -165 -92 -25 -21 -23
-92 3 -143 31 -62 95 -126 145 -145 62 -24 91 -12 253 99 l135 92 21 63 21 64
664 354 c366 195 668 354 672 354 5 0 8 -117 8 -260 0 -258 0 -260 -21 -260
-59 0 -379 -33 -484 -50 -140 -23 -209 -42 -236 -66 -25 -22 -28 -121 -4 -130
13 -5 15 -179 15 -1475 0 -1269 -2 -1469 -14 -1469 -8 0 -16 -12 -18 -27 -4
-31 59 8 -878 -561 -366 -222 -669 -408 -675 -413 -5 -5 23 -9 75 -9 l85 0
551 331 c510 306 554 330 575 318 40 -21 483 -301 496 -313 9 -8 -46 -46 -216
-148 -300 -182 -284 -167 -181 -168 l85 0 209 125 208 126 216 -136 216 -135
65 0 66 0 135 129 135 128 42 -5 43 -5 0 46 c0 44 3 48 66 104 36 32 68 57 70
56 3 0 99 -61 214 -133 201 -128 210 -135 285 -226 73 -89 79 -94 116 -94 41
0 49 9 24 30 -29 24 -15 32 19 11 25 -16 50 -21 98 -21 56 0 68 3 88 25 31 33
40 32 80 -10 32 -33 38 -35 94 -35 l61 1 -68 62 c-37 34 -67 65 -67 68 0 9
468 449 477 448 10 0 341 -402 349 -422 3 -10 -42 -65 -124 -153 -126 -135
-132 -140 -204 -166 -85 -32 -191 -97 -208 -127 -11 -21 -9 -21 115 -21 120 0
125 1 125 21 0 12 64 90 166 202 92 100 170 183 175 185 4 2 22 -15 40 -37 28
-35 38 -41 71 -41 21 0 38 3 38 8 0 4 -22 35 -50 69 l-50 62 56 60 c54 58 56
60 79 45 13 -8 61 -65 106 -127 91 -123 264 -306 369 -392 l68 -55 -6 -45 c-6
-55 14 -67 64 -40 l33 18 80 -52 c277 -178 627 -300 951 -331 210 -21 195 -17
213 -55 9 -19 23 -35 31 -35 18 0 43 24 51 50 7 20 5 20 203 39 331 33 651
144 954 333 l78 48 34 -16 c52 -25 70 -13 63 41 l-6 44 62 49 c139 111 383
386 463 522 l18 30 48 -47 c26 -26 48 -51 48 -57 0 -5 -11 -24 -25 -42 -14
-18 -25 -35 -25 -38 0 -13 65 -5 82 11 18 16 20 16 37 -3 142 -149 351 -390
351 -405 0 -18 9 -19 125 -19 123 0 125 0 115 20 -17 31 -110 89 -208 129
l-88 36 -142 154 -141 154 33 46 c18 25 111 154 206 286 95 132 174 242 176
243 1 2 10 -7 19 -21 16 -24 13 -30 -96 -238 -61 -118 -133 -256 -160 -306
l-50 -93 30 0 c28 0 35 11 177 280 81 154 150 277 153 274 3 -3 90 -128 192
-277 l186 -272 69 -3 69 -3 130 141 c72 78 145 158 163 178 20 22 29 28 23 15
-16 -33 -13 -43 13 -43 20 0 32 17 81 111 42 80 77 131 128 185 l70 75 44 -44
44 -44 -170 -240 c-94 -132 -171 -243 -171 -247 0 -3 15 -6 34 -6 33 0 39 7
192 220 l159 220 33 -34 34 -33 -97 -187 -97 -186 29 0 c26 0 33 10 87 113 32
61 72 136 89 166 l30 53 201 -207 201 -207 47 4 47 3 -134 140 c-74 77 -134
142 -135 145 0 3 18 4 39 2 21 -2 48 1 59 7 19 10 28 1 99 -103 l78 -115 68
-1 67 0 68 73 c38 39 163 175 278 301 l209 229 191 -197 190 -198 54 3 54 3
101 -108 102 -107 50 3 50 3 -301 315 c-165 173 -469 493 -673 710 l-373 395
0 1393 c0 1373 0 1393 20 1429 25 47 25 60 0 125 -17 46 -20 77 -20 231 0 151
-2 177 -15 177 -21 0 -19 36 3 58 16 16 69 24 328 50 170 18 326 37 347 43 38
10 48 26 22 34 -49 16 -50 17 -17 27 41 11 37 30 -9 41 -19 4 -174 23 -345 40
l-309 33 -3 34 c-2 19 -9 40 -17 46 -10 8 -15 40 -17 115 l-3 104 -30 0 -30 0
-3 -105 c-2 -79 -6 -107 -17 -113 -9 -4 -15 -23 -15 -42 0 -19 -3 -36 -7 -38
-5 -3 -45 -8 -90 -11 l-83 -7 0 155 0 156 25 0 c14 0 25 1 25 3 0 1 -13 47
-29 102 l-28 100 -74 5 -74 5 -18 70 c-9 39 -23 116 -29 173 l-11 102 -49 0
-48 0 0 75 0 75 108 0 c433 0 897 81 980 171 29 31 28 55 -6 88 -40 41 -122
68 -352 117 -113 23 -293 63 -400 87 -107 25 -225 50 -262 57 -65 12 -68 13
-68 41 0 24 -4 29 -25 29 -21 0 -25 -5 -25 -28 0 -27 -1 -28 -101 -45 -55 -9
-218 -44 -362 -77 -144 -32 -281 -62 -304 -66 l-43 -7 0 217 0 216 25 0 c14 0
25 1 25 3 0 1 -13 49 -30 107 -16 58 -30 106 -30 107 0 2 -33 3 -74 3 l-75 0
-14 63 -13 62 240 6 c258 7 408 24 576 65 300 74 462 192 463 337 1 96 -61
181 -197 272 -203 135 -531 253 -856 309 -138 23 -302 29 -505 17 -567 -35
-975 -136 -1118 -277 -54 -53 -71 -97 -65 -168 6 -71 33 -121 98 -187 177
-178 618 -311 1193 -358 60 -5 110 -11 112 -13 1 -2 6 -31 10 -65 l7 -62 -96
-3 c-53 -2 -96 -6 -96 -10 0 -5 0 -53 0 -108 l0 -100 44 0 44 0 96 -224 c53
-123 96 -229 96 -234 0 -5 -12 -13 -27 -17 -67 -17 -134 -57 -151 -91 -15 -33
-15 -35 12 -63 24 -25 76 -52 149 -75 16 -5 17 -31 17 -357 l0 -351 -68 73
c-75 81 -136 151 -195 222 -47 58 -78 65 -189 42 -156 -31 -322 -118 -503
-262 -111 -89 -252 -233 -306 -313 -19 -27 -37 -50 -40 -50 -8 0 -170 414
-181 462 -4 20 -19 62 -32 92 -24 54 -25 55 -93 76 -274 86 -848 -26 -1298
-255 -183 -93 -350 -221 -406 -312 l-22 -35 23 -76 c12 -42 25 -81 30 -87 7
-9 130 -462 130 -479 0 -4 -60 -5 -132 -4 l-133 3 0 492 0 491 -25 27 c-36 39
-135 108 -209 145 -401 201 -1208 229 -1589 55 l-77 -36 -115 66 c-176 99
-545 255 -606 255 -12 0 -14 57 -14 373 l0 372 88 57 c72 47 96 57 137 60 l50
3 3 108 3 107 -61 0 c-33 0 -60 3 -59 8 0 4 116 82 257 174 l258 166 99 -23
c367 -87 844 -123 1130 -86 220 28 394 92 485 177 72 67 94 113 94 194 0 78
-20 127 -89 219 -172 227 -672 509 -1090 616 -277 71 -795 104 -1150 74z
m5895 -1821 c0 -47 -3 -47 -25 5 -15 36 -14 37 5 37 17 0 20 -7 20 -42z
m-6190 -434 l0 -306 -22 6 c-13 3 -86 16 -163 28 -111 17 -185 21 -355 22
-120 0 -237 -5 -265 -11 -27 -6 -51 -10 -53 -9 -2 2 847 573 856 575 1 1 2
-137 2 -305z m6750 -314 c80 -5 200 -10 268 -10 l122 0 0 -75 c0 -68 -2 -75
-20 -75 -18 0 -20 -7 -20 -59 0 -89 1 -91 80 -91 l67 0 6 -37 c3 -21 9 -66 13
-100 l7 -63 -97 0 -96 0 0 -105 0 -105 43 0 43 0 66 -166 c43 -107 62 -166 55
-169 -7 -2 -65 -8 -130 -15 -118 -12 -177 -25 -177 -40 0 -10 26 -20 51 -20
29 0 14 -16 -21 -23 -41 -9 -38 -24 8 -36 27 -7 306 -41 338 -41 2 0 4 -135 4
-300 0 -165 -2 -300 -5 -300 -3 0 -49 7 -103 15 -196 29 -410 45 -608 45 -112
0 -204 4 -204 8 0 4 18 26 40 47 82 80 181 245 214 354 38 130 11 225 -84 297
-30 23 -104 97 -165 164 l-110 122 -5 333 c-3 184 -2 331 2 327 4 -4 30 -61
58 -127 28 -66 60 -128 71 -137 58 -49 209 23 209 99 0 13 -25 83 -55 155 -30
72 -55 135 -55 140 0 4 10 6 23 3 12 -3 87 -9 167 -15z m-410 0 c0 -5 -4 -10
-10 -10 -5 0 -10 5 -10 10 0 6 5 10 10 10 6 0 10 -4 10 -10z m1020 -767 l-1
-48 -18 40 c-19 43 -18 55 5 55 10 0 14 -13 14 -47z m-7362 -695 l2 -618 -462
0 c-255 0 -520 -3 -590 -7 l-128 -6 0 296 0 297 82 41 c72 36 87 40 129 35
l46 -6 6 37 c4 21 9 70 13 109 l7 71 -59 8 c-37 4 -53 10 -44 15 8 4 204 74
435 154 345 121 428 147 465 144 43 -3 45 -2 48 25 3 23 8 28 25 25 l22 -3 3
-617z m447 492 c72 -16 166 -35 209 -42 l77 -12 -5 -35 c-3 -20 -24 -218 -46
-441 -29 -283 -47 -423 -60 -465 -11 -33 -23 -82 -26 -108 l-7 -48 -46 5 c-55
7 -322 26 -368 26 l-33 0 0 599 0 599 88 -24 c48 -14 146 -38 217 -54z m7247
-312 c22 -22 24 -58 3 -58 -12 0 -15 -15 -15 -71 0 -68 -1 -70 -22 -63 -13 3
-24 7 -25 8 -1 1 -22 50 -47 109 l-45 107 66 -6 c44 -5 72 -13 85 -26z m-2232
-763 c17 -35 39 -59 72 -80 l47 -30 0 -152 c1 -84 -1 -153 -4 -153 -2 0 -23 7
-45 16 -24 10 -45 13 -50 8 -17 -19 -94 -218 -84 -221 5 -3 185 -66 399 -142
l390 -137 3 -756 2 -757 -228 -323 c-429 -605 -513 -723 -521 -726 -4 -1 -18
5 -30 15 l-21 18 25 100 c47 190 59 303 59 540 0 237 -12 340 -60 536 l-27
107 34 30 c28 26 32 34 23 49 -6 10 -27 20 -49 23 l-37 5 -24 83 c-178 617
-644 1143 -1238 1396 -259 111 -558 176 -806 176 l-99 0 -41 68 -40 68 1 245
0 244 30 -105 c16 -58 34 -147 38 -198 11 -111 35 -156 109 -203 87 -55 159
-71 342 -76 237 -7 437 26 703 116 296 100 517 224 679 379 81 78 130 151 153
226 4 15 35 -21 138 -160 73 -99 143 -202 157 -229z m2122 175 c13 -26 39 -55
61 -69 l37 -24 0 -1356 -1 -1356 -89 94 -90 95 1 1395 0 1396 29 -65 c16 -36
40 -85 52 -110z m-4792 -52 c0 -109 -4 -158 -10 -148 -13 20 -13 310 0 310 6
0 10 -61 10 -162z m-9 -371 c-10 -9 -11 -8 -5 6 3 10 9 15 12 12 3 -3 0 -11
-7 -18z m-43 -79 c-8 -13 -27 -44 -42 -70 -22 -38 -36 -50 -66 -58 -21 -6 -57
-17 -79 -25 -23 -8 -41 -12 -41 -10 0 2 28 18 61 36 34 18 87 59 118 90 62 64
70 69 49 37z m-503 -286 c-190 -99 -293 -168 -437 -294 -36 -32 -69 -58 -72
-58 -3 0 -6 76 -6 168 l0 169 153 6 c151 6 341 33 427 61 78 24 69 17 -65 -52z
m3773 22 l182 -7 0 -83 0 -83 -187 65 c-104 37 -224 79 -268 95 l-80 29 85 -5
c47 -2 167 -7 268 -11z m1352 -916 l0 -933 -86 -122 c-47 -68 -89 -123 -93
-123 -4 0 -143 145 -309 321 l-302 321 0 528 c1 402 4 530 13 538 7 5 138 80
292 167 154 87 297 171 318 187 44 34 76 46 130 47 l37 1 0 -932z m-622 895
c-8 -10 -61 -72 -118 -138 -57 -66 -105 -122 -107 -124 -1 -2 -43 11 -93 29
l-90 32 0 109 0 109 212 0 c200 0 210 -1 196 -17z m226 -12 c-29 -15 -83 -45
-120 -66 l-69 -39 45 53 c25 29 49 59 55 67 7 10 30 14 75 14 l65 0 -51 -29z
m-565 -342 l41 -12 0 -535 0 -534 -47 -67 c-25 -36 -50 -70 -55 -76 -4 -5 -8
274 -8 619 0 533 2 627 14 623 8 -3 32 -11 55 -18z m475 -1539 c125 -132 226
-244 224 -249 -2 -5 -86 -97 -187 -205 l-185 -196 -43 42 -43 42 0 403 c0 222
2 403 4 403 1 0 105 -108 230 -240z m-484 -42 l0 -252 -30 29 -30 29 0 170 c0
167 1 172 28 223 15 29 28 53 30 53 1 0 2 -113 2 -252z m-282 -143 c-32 -64
-45 -82 -55 -74 -9 8 0 28 40 85 28 41 52 74 54 74 2 0 -16 -38 -39 -85z
m1512 -44 c-5 -9 -20 -29 -34 -46 l-25 -30 -1 79 0 80 35 -34 c25 -25 32 -37
25 -49z m-1430 26 c0 -27 -25 -65 -36 -54 -7 7 20 77 31 77 3 0 5 -10 5 -23z
m1120 -49 l0 -73 -26 26 -25 26 22 46 c13 26 24 47 26 47 2 0 3 -33 3 -72z
m-1397 -307 c-58 -113 -116 -222 -129 -242 -22 -35 -490 -697 -503 -711 -3 -4
-28 17 -54 47 l-48 55 69 142 c39 79 78 167 88 196 16 46 21 52 47 52 36 0 67
16 67 35 0 10 10 15 29 15 27 0 49 27 267 331 238 330 238 331 256 309 18 -22
16 -26 -89 -229z m202 240 c3 -5 1 -12 -5 -16 -5 -3 -10 1 -10 9 0 18 6 21 15
7z m1153 -74 l42 -43 0 -117 0 -116 -64 -91 -64 -91 -56 106 -56 105 73 145
c39 80 74 145 77 145 3 0 25 -19 48 -43z m362 -129 l0 -132 -35 34 c-47 45
-47 89 -2 171 17 32 33 59 35 59 1 0 2 -59 2 -132z m391 -116 c-2 -4 -35 -41
-72 -82 l-69 -75 0 156 0 157 73 -75 c39 -41 70 -78 68 -81z m-995 57 c-32
-60 -47 -79 -51 -67 -5 11 10 41 42 87 26 38 49 68 51 66 2 -2 -17 -40 -42
-86z m-889 -375 l3 -439 -121 233 -120 232 108 210 c59 115 113 208 118 207 6
-3 11 -161 12 -443z m792 232 c12 -21 10 -29 -10 -65 l-23 -42 -24 24 -24 24
27 42 c15 22 31 41 35 41 3 0 12 -11 19 -24z m121 -16 c11 -22 18 -40 16 -40
-5 0 -46 65 -46 74 0 15 11 3 30 -34z m1153 -58 l97 -98 -122 -129 c-67 -72
-161 -172 -210 -223 l-88 -93 0 186 c0 183 0 185 22 185 20 0 21 1 3 20 -17
19 -16 22 51 95 38 42 85 93 104 115 19 22 37 39 40 40 3 0 49 -44 103 -98z
m-1543 78 c0 -5 -4 -10 -10 -10 -5 0 -10 5 -10 10 0 6 5 10 10 10 6 0 10 -4
10 -10z m942 -17 l28 -27 0 -144 c0 -139 -1 -144 -26 -178 -15 -19 -30 -34
-35 -34 -5 0 -9 92 -9 205 0 113 3 205 7 205 4 0 20 -12 35 -27z m-1744 -133
c-42 -78 -58 -96 -58 -64 0 15 87 144 97 144 2 0 -15 -36 -39 -80z m879 57
c-4 -12 -321 -462 -338 -481 -5 -6 -9 81 -9 194 l0 205 27 -38 c25 -36 28 -37
88 -37 l62 0 79 84 c75 80 102 102 91 73z m303 -72 c53 -78 58 -96 36 -114
-11 -9 -26 2 -75 54 -33 36 -61 70 -61 76 0 20 31 69 41 64 5 -4 32 -40 59
-80z m266 17 c-4 -3 -11 -1 -17 5 -8 8 -7 17 3 32 13 22 13 22 16 -5 2 -14 1
-28 -2 -32z m-6242 -14 c5 -24 2 -34 -14 -45 -54 -38 -45 -79 19 -89 36 -6 37
-7 85 -122 26 -65 50 -123 53 -131 4 -8 -68 53 -160 135 l-166 149 0 57 -1 57
48 6 c26 4 52 8 57 10 6 2 24 4 41 4 28 1 32 -3 38 -31z m-2983 12 c5 0 9 -68
9 -155 l0 -155 40 0 40 0 0 149 0 148 23 -4 c12 -2 103 -14 202 -27 l180 -22
3 -116 c2 -95 0 -117 -13 -128 -27 -22 -259 -162 -270 -163 -13 0 -515 306
-515 315 0 12 265 168 278 163 8 -3 18 -5 23 -5z m8758 -72 c-7 -13 -297 -326
-420 -453 l-29 -30 0 33 c0 25 4 32 19 32 14 0 62 59 162 198 79 108 160 221
182 250 l39 54 28 -34 c20 -24 26 -37 19 -50z m-6029 47 c0 -9 -6 -12 -15 -9
-8 4 -15 10 -15 15 0 5 7 9 15 9 8 0 15 -7 15 -15z m-113 -59 c44 -42 55 -57
46 -66 -6 -7 -15 -10 -20 -7 -18 11 -104 127 -94 127 5 0 36 -24 68 -54z
m6556 -10 c-8 -11 -33 22 -33 43 0 11 6 9 19 -9 11 -13 17 -29 14 -34z m-6699
3 c19 -23 32 -47 29 -53 -4 -6 -88 -112 -187 -235 l-181 -224 -3 254 c-1 139
0 259 3 266 2 8 22 13 50 13 l45 0 0 -145 0 -145 30 0 30 0 0 149 0 150 28 4
c15 2 48 5 74 6 43 1 49 -2 82 -40z m-1634 -3 c0 -3 -4 -8 -10 -11 -5 -3 -10
-1 -10 4 0 6 5 11 10 11 6 0 10 -2 10 -4z m340 -38 c20 -25 16 -41 -18 -71
-16 -15 -24 -16 -41 -7 -17 9 -21 20 -21 62 l0 51 31 -7 c17 -3 39 -16 49 -28z
m630 -124 c0 -90 -4 -154 -9 -152 -5 2 -82 68 -171 148 l-162 145 33 6 c19 4
96 7 172 8 l137 1 0 -156z m-470 121 c18 -19 21 -28 12 -37 -13 -13 -45 10
-63 44 -15 28 23 23 51 -7z m6460 -27 l21 -43 -26 30 c-13 17 -25 36 -25 43 0
22 9 13 30 -30z m-6770 22 c0 -5 -4 -10 -10 -10 -5 0 -10 5 -10 10 0 6 5 10
10 10 6 0 10 -4 10 -10z m8199 -55 l0 -30 -15 28 c-17 31 -11 74 6 47 6 -8 10
-28 9 -45z m-129 -37 c0 -26 -13 -22 -38 11 -13 18 -19 37 -15 46 5 14 10 12
29 -12 13 -15 23 -36 24 -45z m-8146 -15 c73 -44 76 -48 76 -84 0 -32 -12 -53
-91 -151 -50 -62 -98 -120 -105 -128 -12 -12 -14 15 -14 186 0 198 0 201 23
212 31 15 27 16 111 -35z m1619 15 c-10 -11 -31 -30 -48 -41 -28 -21 -28 -19
9 26 21 26 43 44 48 41 5 -3 1 -15 -9 -26z m-1315 -25 c-13 -14 -24 -19 -26
-13 -5 15 28 51 40 44 5 -3 -1 -17 -14 -31z m378 -123 l174 -154 0 -49 c0 -49
0 -49 -22 -35 -13 8 -62 38 -111 67 -77 46 -98 66 -182 169 l-95 116 22 23
c12 13 26 22 31 20 5 -1 87 -72 183 -157z m1429 -85 c55 -49 100 -92 100 -95
0 -4 -22 -32 -50 -63 l-50 -56 -148 182 c-105 128 -144 183 -133 185 11 3 16
15 16 44 l0 40 83 -74 c45 -40 127 -114 182 -163z m-335 215 c0 -5 -2 -10 -4
-10 -3 0 -8 5 -11 10 -3 6 -1 10 4 10 6 0 11 -4 11 -10z m6431 -62 l23 -33
-27 24 c-15 14 -27 28 -27 33 0 15 8 8 31 -24z m-7791 -33 c13 -14 20 -25 16
-25 -12 0 -56 32 -56 41 0 16 16 10 40 -16z m8179 -52 l0 -48 -16 32 c-13 26
-14 35 -3 48 18 22 20 20 19 -32z m-9049 -143 c0 -60 -2 -110 -4 -110 -11 0
-186 113 -182 118 14 13 163 100 174 101 9 1 12 -27 12 -109z"/>
</g>
</svg>
